<svg xmlns="http://www.w3.org/2000/svg" viewBox="0 0 300.41 77.56" fill="#ffffff" id="logo" class="w-10"><path d="M83.2,24.55c-0.05-0.11-0.11-0.21-0.18-0.31c-0.02-0.03-0.04-0.05-0.06-0.08c-0.06-0.08-0.13-0.16-0.21-0.24  c-0.01-0.01-0.02-0.03-0.04-0.04c-0.09-0.08-0.2-0.16-0.31-0.24c-0.03-0.02-0.06-0.04-0.09-0.06c-0.1-0.06-0.2-0.12-0.31-0.17  c-0.03-0.01-0.06-0.03-0.09-0.04c-0.14-0.06-0.28-0.12-0.43-0.17c-0.03-0.01-0.07-0.02-0.11-0.03c-0.13-0.04-0.26-0.08-0.4-0.11  c-0.04-0.01-0.09-0.02-0.14-0.03c-0.18-0.04-0.36-0.08-0.55-0.11c-0.03-0.01-0.07-0.01-0.1-0.01c-0.17-0.03-0.34-0.05-0.52-0.07  c-0.06-0.01-0.12-0.01-0.18-0.02c-0.21-0.02-0.42-0.03-0.65-0.04c-0.02,0-0.04,0-0.06,0c-0.22-0.01-0.44-0.01-0.67-0.01  c-0.08,0-0.15,0-0.23,0c-0.2,0-0.41,0.01-0.63,0.01c-0.05,0-0.11,0-0.16,0c-0.26,0.01-0.52,0.03-0.79,0.04  c-0.09,0.01-0.18,0.01-0.27,0.02c-0.21,0.02-0.42,0.03-0.64,0.06c-0.09,0.01-0.18,0.02-0.27,0.03c-0.28,0.03-0.57,0.06-0.87,0.1  c-0.1,0.01-0.21,0.03-0.32,0.04c-0.22,0.03-0.44,0.06-0.66,0.09c-0.12,0.02-0.24,0.03-0.36,0.05c-0.3,0.05-0.61,0.1-0.93,0.15  c-2.32,0.4-4.93,0.99-7.76,1.75c-0.22,0.06-0.4,0.22-0.48,0.44c-0.54,1.53-2.11,2.96-4.23,3.65c-3.08,1-6.14,0.06-6.84-2.11  c-0.7-2.16,1.22-4.72,4.3-5.72c2.4-0.78,4.79-0.37,6.06,0.87c0.18,0.17,0.43,0.24,0.67,0.18c2.62-0.67,5.02-1.18,7.16-1.51  C65.01,8.43,52.27-0.17,37.54,0C18.2,0.22,2.28,15.78,1.64,35.11c-0.09,2.73,0.12,5.4,0.61,7.97c5.81-3.03,14.81-6.24,25.47-8.97  c0.34-0.09,0.57-0.42,0.53-0.77c-0.48-3.88,1.84-7.69,5.7-8.94l3.57-1.16l0.24-0.08l7.36-2.39c0.93-0.3,1.89,0.18,2.19,1.11  c0.21,0.89-0.35,1.86-1.21,2.14l-7.6,2.47c-0.82,0.27-1.23,1.12-1.03,1.95c0.23,0.91,1.23,1.41,2.12,1.11l7.59-2.47  c0.93-0.3,1.88,0.18,2.19,1.11c0.21,0.89-0.35,1.86-1.21,2.14l-7.6,2.47c-0.82,0.27-1.23,1.12-1.03,1.95  c0.23,0.91,1.22,1.4,2.12,1.11l7.59-2.47c0.93-0.3,1.89,0.18,2.19,1.11c0.21,0.89-0.35,1.86-1.21,2.14l-7.29,2.37l0,0l-3.81,1.24  c-2.97,0.96-6.08,0.18-8.23-1.79c-0.21-0.19-0.53-0.23-0.78-0.1C19.68,43.52,11.06,48.82,5.75,53.22c-0.26,0.21-0.5,0.42-0.74,0.63  C5,53.86,4.98,53.87,4.97,53.89c-0.24,0.21-0.48,0.42-0.7,0.62c0,0,0,0-0.01,0.01c-0.46,0.42-0.88,0.82-1.27,1.22  c-0.01,0.01-0.01,0.01-0.02,0.02c-0.19,0.19-0.36,0.38-0.53,0.56c-0.01,0.02-0.03,0.03-0.04,0.05c-0.17,0.18-0.33,0.36-0.47,0.54  c-0.01,0.01-0.02,0.03-0.03,0.04C1.58,57.3,1.31,57.66,1.07,58C1.07,58,1.06,58.01,1.06,58.02c-0.11,0.16-0.21,0.32-0.31,0.48  c-0.01,0.02-0.02,0.04-0.04,0.06c-0.09,0.15-0.17,0.3-0.24,0.45c-0.01,0.02-0.02,0.04-0.03,0.06c-0.07,0.15-0.14,0.29-0.19,0.43  c0,0.01-0.01,0.02-0.01,0.03c-0.05,0.14-0.1,0.28-0.13,0.41c0,0.01,0,0.01-0.01,0.02c-0.03,0.13-0.06,0.26-0.07,0.39  c0,0.02-0.01,0.04-0.01,0.06C0,60.53,0,60.64,0,60.76c0,0.02,0,0.04,0,0.06c0.01,0.11,0.02,0.22,0.04,0.33  c0,0.02,0.01,0.03,0.01,0.05c0.03,0.11,0.06,0.22,0.11,0.32c0,0,0,0,0,0l0,0c0,0,0,0,0,0c0.93,2.09,5.59,2.29,12.54,0.95  c6.54,6.32,15.44,10.21,25.26,10.21c20.07,0,36.34-16.27,36.34-36.34c0-0.31,0-0.62-0.01-0.93C80.74,30.75,84.2,26.78,83.2,24.55z"></path><path d="M144.9,9.22c-1.96,0-3.59,0.65-4.88,1.94c-1.29,1.29-1.94,2.92-1.94,4.89c0,1.96,0.65,3.59,1.94,4.89  c1.29,1.29,2.92,1.94,4.88,1.94c1.96,0,3.59-0.65,4.89-1.94c1.29-1.29,1.94-2.92,1.94-4.89c0-1.96-0.65-3.59-1.94-4.89  C148.49,9.87,146.86,9.22,144.9,9.22z"></path><rect x="138.9" y="26.51" width="12" height="37.71"></rect><path d="M190.09,28.09c-2.78-1.65-5.94-2.47-9.48-2.47c-4.83,0-8.41,1.55-10.76,4.64v-3.74h-11.66v51.05h11.66V59.45  c2.35,3.09,5.94,4.63,10.76,4.63c3.54,0,6.7-0.82,9.48-2.47c2.78-1.65,4.93-3.94,6.47-6.86c1.54-2.92,2.31-6.22,2.31-9.9  c0-3.68-0.77-6.97-2.31-9.9C195.02,32.03,192.87,29.74,190.09,28.09z M185.29,51.84c-1.62,1.82-3.78,2.72-6.47,2.72  c-2.78,0-5-0.91-6.66-2.72c-1.66-1.82-2.5-4.14-2.5-6.99c0-2.84,0.83-5.17,2.5-6.99c1.66-1.82,3.89-2.73,6.66-2.73  c2.69,0,4.85,0.91,6.47,2.73c1.62,1.82,2.43,4.14,2.43,6.99C187.72,47.69,186.91,50.02,185.29,51.84z"></path><g><g><path d="M232.22,28.11c-2.97-1.65-6.31-2.47-10.02-2.47c-3.72,0-7.06,0.82-10.02,2.47c-2.97,1.65-5.28,3.94-6.95,6.86    c-1.67,2.92-2.51,6.22-2.51,9.9c0,3.67,0.84,6.97,2.51,9.9c1.67,2.92,3.99,5.21,6.95,6.86c2.97,1.65,6.31,2.47,10.02,2.47    c3.72,0,7.06-0.82,10.02-2.47c2.97-1.65,5.28-3.94,6.95-6.86c1.67-2.92,2.51-6.22,2.51-9.9c0-3.68-0.84-6.97-2.51-9.9    C237.5,32.05,235.18,29.76,232.22,28.11z M228.49,51.85c-1.61,1.82-3.71,2.72-6.3,2.72c-2.59,0-4.69-0.91-6.3-2.72    c-1.61-1.82-2.41-4.14-2.41-6.99s0.8-5.17,2.41-6.99c1.61-1.82,3.71-2.73,6.3-2.73c2.59,0,4.69,0.91,6.3,2.73    c1.61,1.82,2.41,4.14,2.41,6.99S230.1,50.04,228.49,51.85z"></path></g><rect x="245.98" y="11.48" width="11.15" height="52.62"></rect><path d="M297.9,34.97c-1.67-2.92-3.99-5.21-6.95-6.86c-2.97-1.65-6.31-2.47-10.02-2.47c-3.72,0-7.06,0.82-10.02,2.47   c-2.97,1.65-5.28,3.94-6.95,6.86c-1.67,2.92-2.51,6.22-2.51,9.9c0,3.67,0.84,6.97,2.51,9.9c1.67,2.92,3.99,5.21,6.95,6.86   c2.97,1.65,6.31,2.47,10.02,2.47c3.72,0,7.06-0.82,10.02-2.47c2.97-1.65,5.28-3.94,6.95-6.86c1.67-2.92,2.51-6.22,2.51-9.9   C300.41,41.19,299.57,37.89,297.9,34.97z M287.22,51.85c-1.61,1.82-3.71,2.72-6.3,2.72c-2.59,0-4.69-0.91-6.3-2.72   c-1.61-1.82-2.41-4.14-2.41-6.99s0.8-5.17,2.41-6.99c1.61-1.82,3.71-2.73,6.3-2.73c2.59,0,4.69,0.91,6.3,2.73   c1.61,1.82,2.41,4.14,2.41,6.99S288.83,50.04,287.22,51.85z"></path></g><polygon points="133.51,26.51 120.34,26.51 106.68,41.37 106.68,11.48 95.01,11.48 95.01,64.22 106.68,64.22   106.68,55.68 111.15,50.82 120.34,64.22 133.51,64.22 118.17,43.19 "></polygon></svg>